<svg width="18" height="20" viewBox="0 0 18 20" fill="none" xmlns="http://www.w3.org/2000/svg">
<path d="M9.83341 16.6667C10.9381 16.6654 11.9971 16.2259 12.7782 15.4448C13.5593 14.6637 13.9988 13.6047 14.0001 12.5V5.20251C14.0014 4.76448 13.9157 4.33055 13.7481 3.92586C13.5804 3.52118 13.3341 3.1538 13.0234 2.84501L11.1551 0.976681C10.8463 0.665993 10.4789 0.419683 10.0742 0.252031C9.66955 0.0843791 9.23561 -0.00128163 8.79758 1.44913e-05H4.83341C3.72875 0.00133771 2.66971 0.440749 1.8886 1.22186C1.10748 2.00298 0.668071 3.06202 0.666748 4.16668V12.5C0.668071 13.6047 1.10748 14.6637 1.8886 15.4448C2.66971 16.2259 3.72875 16.6654 4.83341 16.6667H9.83341ZM2.33341 12.5V4.16668C2.33341 3.50364 2.59681 2.86776 3.06565 2.39891C3.53449 1.93007 4.17037 1.66668 4.83341 1.66668C4.83341 1.66668 8.93258 1.67835 9.00008 1.68668V3.33335C9.00008 3.77538 9.17568 4.1993 9.48824 4.51186C9.8008 4.82442 10.2247 5.00001 10.6667 5.00001H12.3134C12.3217 5.06751 12.3334 12.5 12.3334 12.5C12.3334 13.1631 12.07 13.7989 11.6012 14.2678C11.1323 14.7366 10.4965 15 9.83341 15H4.83341C4.17037 15 3.53449 14.7366 3.06565 14.2678C2.59681 13.7989 2.33341 13.1631 2.33341 12.5ZM17.3334 6.66668V15.8333C17.3321 16.938 16.8927 17.997 16.1116 18.7782C15.3305 19.5593 14.2714 19.9987 13.1667 20H5.66675C5.44573 20 5.23377 19.9122 5.07749 19.7559C4.92121 19.5997 4.83341 19.3877 4.83341 19.1667C4.83341 18.9457 4.92121 18.7337 5.07749 18.5774C5.23377 18.4211 5.44573 18.3333 5.66675 18.3333H13.1667C13.8298 18.3333 14.4657 18.07 14.9345 17.6011C15.4034 17.1323 15.6667 16.4964 15.6667 15.8333V6.66668C15.6667 6.44567 15.7545 6.23371 15.9108 6.07743C16.0671 5.92114 16.2791 5.83335 16.5001 5.83335C16.7211 5.83335 16.9331 5.92114 17.0893 6.07743C17.2456 6.23371 17.3334 6.44567 17.3334 6.66668Z" fill="#5E6875"/>
</svg>
