<svg width="20" height="20" viewBox="0 0 20 20" fill="none" xmlns="http://www.w3.org/2000/svg">
<path d="M15.4167 0.833252H4.58333C3.36816 0.834575 2.20314 1.31789 1.34389 2.17714C0.484634 3.0364 0.00132347 4.20142 0 5.41658L0 14.5833C0.00132347 15.7984 0.484634 16.9634 1.34389 17.8227C2.20314 18.6819 3.36816 19.1653 4.58333 19.1666H15.4167C16.6318 19.1653 17.7969 18.6819 18.6561 17.8227C19.5154 16.9634 19.9987 15.7984 20 14.5833V5.41658C19.9987 4.20142 19.5154 3.0364 18.6561 2.17714C17.7969 1.31789 16.6318 0.834575 15.4167 0.833252ZM15.4167 3.33325C15.9221 3.33493 16.4092 3.52204 16.7858 3.85909L11.3692 9.27575C11.0013 9.62714 10.5121 9.82321 10.0033 9.82321C9.49458 9.82321 9.0054 9.62714 8.6375 9.27575L3.22083 3.85909C3.59571 3.52356 4.08025 3.33656 4.58333 3.33325H15.4167ZM15.4167 16.6666H4.58333C4.0308 16.6666 3.5009 16.4471 3.11019 16.0564C2.71949 15.6657 2.5 15.1358 2.5 14.5833V6.68075L6.86583 11.0466C7.2773 11.4582 7.76584 11.7848 8.30353 12.0076C8.84123 12.2304 9.41756 12.345 9.99958 12.345C10.5816 12.345 11.1579 12.2304 11.6956 12.0076C12.2333 11.7848 12.7219 11.4582 13.1333 11.0466L17.5 6.68075V14.5833C17.5 15.1358 17.2805 15.6657 16.8898 16.0564C16.4991 16.4471 15.9692 16.6666 15.4167 16.6666Z" fill="#3E3D41"/>
</svg>
