<svg width="18" height="20" viewBox="0 0 18 20" fill="none" xmlns="http://www.w3.org/2000/svg">
<path d="M14.8703 7.09129V5.87029C14.8703 2.62821 12.242 0 8.99997 0C5.75789 0 3.12972 2.62821 3.12972 5.87025V7.09125C1.58736 7.87835 0.615778 9.46297 0.613892 11.1946V15.3876C0.616683 17.9338 2.68005 19.9972 5.22623 20H12.7737C15.3199 19.9972 17.3833 17.9338 17.386 15.3876V11.1946C17.3842 9.46301 16.4126 7.87835 14.8703 7.09129ZM8.99997 2.51583C10.8526 2.51583 12.3544 4.01766 12.3544 5.87025V6.58223H5.64555V5.87025C5.64555 4.01766 7.14738 2.51583 8.99997 2.51583ZM14.8703 15.3876C14.8703 16.5455 13.9316 17.4841 12.7737 17.4841H5.22627C4.0684 17.4841 3.12976 16.5455 3.12976 15.3876V11.1946C3.12976 10.0367 4.0684 9.0981 5.22627 9.0981H12.7737C13.9316 9.0981 14.8703 10.0367 14.8703 11.1946V15.3876Z" fill="#3E3D41"/>
</svg>
