<svg width="16" height="9" viewBox="0 0 16 9" fill="none" xmlns="http://www.w3.org/2000/svg">
<path d="M8 0.667175C6.01155 0.669381 4.10518 1.46027 2.69914 2.86631C1.29309 4.27235 0.502206 6.17873 0.5 8.16717C0.5 8.38819 0.587797 8.60015 0.744078 8.75643C0.900358 8.91271 1.11232 9.00051 1.33333 9.00051C1.55435 9.00051 1.76631 8.91271 1.92259 8.75643C2.07887 8.60015 2.16667 8.38819 2.16667 8.16717C2.16667 6.62008 2.78125 5.13635 3.87521 4.04239C4.96917 2.94842 6.4529 2.33384 8 2.33384C9.5471 2.33384 11.0308 2.94842 12.1248 4.04239C13.2188 5.13635 13.8333 6.62008 13.8333 8.16717C13.8333 8.38819 13.9211 8.60015 14.0774 8.75643C14.2337 8.91271 14.4457 9.00051 14.6667 9.00051C14.8877 9.00051 15.0996 8.91271 15.2559 8.75643C15.4122 8.60015 15.5 8.38819 15.5 8.16717C15.4978 6.17873 14.7069 4.27235 13.3009 2.86631C11.8948 1.46027 9.98845 0.669381 8 0.667175Z" fill="#3E3D41"/>
</svg>
